# xmcd CD database file generated by Grip 2.7
# 
# Track frame offsets:
#       150
#       14312
#       31370
#       45865
#       63415
#       76512
#       89255
#       104332
#       121282
#       130170
#       142885
#       155884
#       175485
#       192490
# 
# Disc length: 2773 seconds
# 
# Revision: 3
# Processed by: cddbd v1.4b41PL3 Copyright (c) Steve Scherf et al.
# Submitted via: Grip 2.7
# 
DISCID=b10ad30e
DTITLE=Slim Cessna's Auto Club - Slim Cessna's Auto Club
DYEAR=1900
DGENRE=
TTITLE0=Hold On
TTITLE1=Kristin and Billy
TTITLE2=Limon
TTITLE3=My Goodness Me
TTITLE4=Willow Garden
TTITLE5=Dear Amelia
TTITLE6=Jordan
TTITLE7=Fifteen Years
TTITLE8=That's Why I'm Unhappy
TTITLE9=Cryin' On My Pillow
TTITLE10=What'll I Do?
TTITLE11=Blindman
TTITLE12=Champagne Like a Lady
TTITLE13=Goodnight My Friend
EXTD=
EXTT0=
EXTT1=
EXTT2=
EXTT3=
EXTT4=
EXTT5=
EXTT6=
EXTT7=
EXTT8=
EXTT9=
EXTT10=
EXTT11=
EXTT12=
EXTT13=
PLAYORDER=
